<?xml version="1.0" encoding="utf-8"?>
<!-- Generator: Adobe Illustrator 24.3.0, SVG Export Plug-In . SVG Version: 6.00 Build 0)  -->
<svg version="1.1" id="レイヤー_1" xmlns="http://www.w3.org/2000/svg" xmlns:xlink="http://www.w3.org/1999/xlink" x="0px"
	 y="0px" viewBox="0 0 199 21" style="enable-background:new 0 0 199 21;" xml:space="preserve">
<style type="text/css">
	.st0{fill:#004A34;}
	.st1{fill:#E50012;}
</style>
<g>
	<path class="st0" d="M1.3,6.7h9.2c0.8,0,1.5,0,2,0.1C13,7,13.4,7.1,13.7,7.3c0.3,0.2,0.6,0.5,0.7,0.9c0.1,0.4,0.2,0.8,0.2,1.4v2.1
		c0,0.7-0.1,1.3-0.4,1.7c-0.2,0.4-0.7,0.7-1.3,0.9c-0.6,0.2-1.5,0.3-2.5,0.3H1.3V6.7 M2.5,14h8.1c0.6,0,1.1,0,1.5-0.1
		c0.4-0.1,0.7-0.2,0.9-0.4c0.2-0.2,0.3-0.4,0.4-0.6c0.1-0.3,0.1-0.6,0.1-1V9.7c0-0.6-0.1-1-0.2-1.3c-0.2-0.3-0.4-0.5-0.9-0.6
		c-0.4-0.1-1-0.2-1.8-0.2h-8V14z"/>
	<path class="st0" d="M20,6.7h1.2v0.8H20V6.7 M20,14.8V9h1.2v5.7H20z"/>
	<path class="st0" d="M26.6,12.7c0-0.1,0-0.3,0-0.5c0-0.2,0-0.4,0-0.5c0,0,0-0.1,0-0.2c0-0.1,0-0.2,0-0.3C26.6,9.8,27.7,9,30,9h3.6
		c0.8,0,1.3,0.1,1.7,0.2c0.4,0.2,0.6,0.3,0.7,0.4V9h1.2v6.3c0,1.2-1.2,1.9-3.6,1.9h-3.4c-0.7,0-1.2-0.1-1.7-0.2
		c-0.5-0.1-0.9-0.3-1.1-0.5C27.1,16.3,27,16,27,15.7h1.3c0,0.2,0.2,0.4,0.5,0.6c0.3,0.2,0.9,0.2,1.5,0.2h3.2c0.5,0,1,0,1.3-0.2
		c0.4-0.1,0.6-0.2,0.8-0.4c0.2-0.2,0.3-0.3,0.3-0.5v-1.3c-0.1,0.1-0.2,0.2-0.4,0.3c-0.2,0.1-0.5,0.2-0.8,0.3
		c-0.3,0.1-0.7,0.1-1.2,0.1h-3.5c-0.8,0-1.5-0.1-2-0.3c-0.5-0.2-0.9-0.4-1.2-0.7C26.7,13.5,26.6,13.1,26.6,12.7 M36,12.5v-1.3
		c0-0.5-0.2-0.8-0.7-1.1c-0.4-0.3-1.1-0.4-2-0.4h-2.8c-1,0-1.7,0.1-2.2,0.4c-0.4,0.2-0.7,0.6-0.7,1.2v1.3c0,0.5,0.2,0.9,0.7,1.2
		c0.5,0.2,1.2,0.4,2.1,0.4h2.8c0.9,0,1.5-0.1,1.9-0.4C35.8,13.4,36,13,36,12.5z"/>
	<path class="st0" d="M42.7,6.7h1.2v0.8h-1.2V6.7 M42.7,14.8V9h1.2v5.7H42.7z"/>
	<path class="st0" d="M51.3,13.7c0.3,0.2,0.8,0.3,1.3,0.3h1.6c0.7,0,1.3-0.1,1.6-0.2c0.4-0.2,0.6-0.3,0.7-0.6
		c0.1-0.2,0.2-0.5,0.2-0.8v-0.1H58v0.2c0,0.5-0.2,1-0.7,1.5c-0.5,0.5-1.4,0.7-2.9,0.7h-1.8c-1,0-1.7-0.2-2.2-0.5
		c-0.5-0.4-0.8-0.9-0.8-1.6V9.7h-1.1V9h1.1V7.9h1.2V9h6.4v0.7h-6.4v3C50.8,13.2,51,13.5,51.3,13.7z"/>
	<path class="st0" d="M62.2,12.6c0-0.4,0.2-0.7,0.7-1c0.4-0.2,1.1-0.4,2-0.4h4.9c0.6,0,1,0.1,1.2,0.2c0.2,0.1,0.3,0.2,0.3,0.3v-0.8
		c0-0.3-0.2-0.6-0.5-0.9c-0.3-0.2-0.9-0.3-1.5-0.3H66c-0.9,0-1.4,0.1-1.7,0.3c-0.3,0.2-0.4,0.3-0.4,0.5v0.2h-1.3v-0.2h0
		c0-0.1,0.1-0.3,0.2-0.5c0.1-0.2,0.4-0.4,0.9-0.6c0.5-0.2,1.1-0.3,2-0.3h3.7c2.1,0,3.2,0.7,3.2,2v3.7h-1.2v-0.5
		c-0.1,0.1-0.2,0.2-0.5,0.3c-0.2,0.1-0.6,0.2-1,0.2h-4.8c-1.9,0-2.8-0.5-2.8-1.5V12.6 M65.3,12c-0.7,0-1.2,0.1-1.5,0.2
		c-0.2,0.1-0.4,0.3-0.4,0.6v0.4c0,0.3,0.1,0.5,0.4,0.6c0.3,0.1,0.8,0.2,1.4,0.2h4.2c0.6,0,1.1-0.1,1.4-0.3c0.3-0.2,0.4-0.4,0.4-0.8
		c0-0.7-0.6-1-1.8-1H65.3z"/>
	<rect x="78.2" y="6.7" class="st0" width="1.2" height="8"/>
	<path class="st0" d="M115.7,9c0-0.5,0.1-1,0.4-1.3c0.3-0.3,0.7-0.6,1.3-0.7c0.6-0.2,1.3-0.2,2.2-0.2h6c1.3,0,2.3,0.2,3,0.6
		c0.7,0.4,1,0.9,1,1.7h-1.2c0-0.3-0.1-0.6-0.3-0.8c-0.2-0.2-0.5-0.4-1-0.5c-0.5-0.1-1-0.2-1.8-0.2h-5.7c-0.7,0-1.3,0.1-1.7,0.2
		c-0.4,0.1-0.6,0.3-0.8,0.5c-0.1,0.2-0.2,0.5-0.2,0.8c0,0.3,0.1,0.5,0.2,0.7c0.2,0.2,0.5,0.3,0.9,0.4c0.4,0.1,1.1,0.1,1.9,0.1h5.3
		c1,0,1.9,0.1,2.5,0.2c0.6,0.1,1.1,0.4,1.4,0.7c0.3,0.3,0.5,0.7,0.5,1.2v0.2c0,0.6-0.2,1-0.5,1.3c-0.3,0.3-0.7,0.6-1.2,0.7
		c-0.6,0.1-1.3,0.2-2.2,0.2h-6.1c-0.8,0-1.5-0.1-2.1-0.3c-0.6-0.2-1-0.4-1.3-0.8c-0.3-0.3-0.5-0.8-0.5-1.3h1.2
		c0,0.3,0.1,0.6,0.3,0.8c0.2,0.2,0.5,0.4,1,0.5c0.5,0.1,1,0.2,1.8,0.2h5.6c0.9,0,1.6-0.1,2.1-0.4c0.5-0.2,0.7-0.6,0.7-1.1
		c0-0.3-0.1-0.6-0.3-0.8c-0.2-0.2-0.5-0.4-0.9-0.5c-0.4-0.1-1-0.1-1.7-0.1h-6c-0.8,0-1.4,0-1.9-0.1c-0.5-0.1-0.9-0.2-1.2-0.4
		c-0.3-0.2-0.5-0.4-0.6-0.6C115.8,9.7,115.7,9.4,115.7,9z"/>
	<path class="st0" d="M136.7,13.7c0.3,0.2,0.8,0.3,1.3,0.3h1.6c0.7,0,1.3-0.1,1.6-0.2c0.4-0.2,0.6-0.3,0.7-0.6
		c0.1-0.2,0.2-0.5,0.2-0.8v-0.1h1.2v0.2c0,0.5-0.2,1-0.7,1.5c-0.5,0.5-1.4,0.7-2.9,0.7H138c-1,0-1.7-0.2-2.2-0.5
		c-0.5-0.4-0.8-0.9-0.8-1.6V9.7h-1.1V9h1.1V7.9h1.2V9h6.4v0.7h-6.4v3C136.2,13.2,136.3,13.5,136.7,13.7z"/>
	<path class="st0" d="M154.7,14.8h-3.3c-2.5,0-3.7-0.8-3.7-2.3V9h1.2v3.5c0,0.5,0.2,0.9,0.7,1.1c0.4,0.3,1,0.4,1.8,0.4h3.3
		c0.7,0,1.3-0.1,1.7-0.4c0.5-0.3,0.7-0.6,0.7-1.1V9h1.2v5.7h-1.2v-0.7c-0.1,0.1-0.4,0.3-0.8,0.5C156,14.7,155.4,14.8,154.7,14.8z"/>
	<path class="st0" d="M170,14.8h-3.3c-1.2,0-2.1-0.2-2.7-0.6c-0.6-0.4-0.9-0.9-0.9-1.7c0-0.1,0-0.2,0-0.4c0-0.1,0-0.2,0-0.3
		c0-0.1,0-0.1,0-0.3c0-0.1,0-0.2,0-0.4c0-0.4,0.2-0.8,0.4-1.2c0.3-0.3,0.7-0.6,1.2-0.8c0.5-0.2,1.2-0.3,2-0.3h3.3
		c0.8,0,1.4,0.1,1.7,0.2c0.4,0.2,0.6,0.3,0.7,0.4V6.7h1.2v8h-1.2v-0.6c-0.2,0.1-0.4,0.2-0.9,0.4C171.2,14.7,170.6,14.8,170,14.8
		 M172.5,12.5v-1.3c0-0.5-0.2-0.8-0.7-1.1c-0.4-0.3-1.1-0.4-2-0.4h-2.7c-1,0-1.7,0.1-2.1,0.4c-0.4,0.3-0.7,0.6-0.7,1.2v1.3
		c0,0.5,0.2,0.9,0.7,1.2c0.5,0.2,1.1,0.4,2.1,0.4h2.7c0.9,0,1.5-0.1,2-0.4C172.3,13.4,172.5,13,172.5,12.5z"/>
	<path class="st0" d="M179.1,6.7h1.2v0.8h-1.2V6.7 M179.1,14.8V9h1.2v5.7H179.1z"/>
	<path class="st0" d="M185.5,11.3c0-0.7,0.3-1.2,0.9-1.6C187,9.2,188,9,189.2,9h3.4c0.9,0,1.6,0.1,2.1,0.3c0.5,0.2,0.9,0.5,1.2,0.8
		c0.2,0.3,0.4,0.7,0.4,1.1v1.3c0,0.4-0.1,0.8-0.4,1.2c-0.2,0.3-0.6,0.6-1.2,0.8c-0.5,0.2-1.3,0.3-2.1,0.3h-3.4
		c-2.4,0-3.7-0.8-3.7-2.3c0-0.1,0-0.2,0-0.3c0-0.1,0-0.2,0-0.3c0-0.1,0-0.1,0-0.3C185.5,11.5,185.5,11.4,185.5,11.3 M186.8,12.5
		c0,1.1,0.9,1.6,2.6,1.6h3.2c1.7,0,2.6-0.5,2.6-1.6v-1.3c0-0.5-0.2-0.9-0.7-1.2c-0.4-0.3-1.1-0.4-1.9-0.4h-3.2c-0.6,0-1,0.1-1.4,0.2
		c-0.4,0.1-0.7,0.3-0.8,0.5c-0.2,0.2-0.3,0.5-0.3,0.9V12.5z"/>
	<path class="st1" d="M110,8.8l0.3-0.7l0.1-0.2c-0.2-1.1-1.3-1.3-1.3-1.3l-0.5-0.1c0,0,0,0-0.1,0L107.1,6l0,0l-3.1-0.9
		c-0.5-0.1-0.6-0.5-0.4-0.7l2.2-2c0.2-0.2,0.7-0.3,1.1-0.2l5,1.1c0.5,0.1,0.6,0.3,0.4,0.5l0.4-0.8c0.4-0.8-0.1-1.1-0.9-1.2l-5.9-1.2
		c-0.6-0.1-1.4,0-1.7,0.2l-2.9,2.1c-0.1-0.1-0.2-0.1-0.4-0.2l-5.7-1.4c-0.6-0.1-1.6,0-2.3,0.3l-8.3,3.6c-1.3,0.6-1.8,1.3-1.2,1.6
		l7.2,3c0.2,0.1,0.5,0.1,0.8,0.1L90,11c-1.5,1-1.9,2.4-0.9,3l11.8,6c1.7,0.8,3.9-0.1,4.7-2L110,8.8 M87.2,5.1
		c-0.5-0.2-0.3-0.6,0.4-0.9L93,1.8c0.5-0.2,1.2-0.1,1.6,0c0,0,6.4,0.9,1.2,4.2C92.9,7.9,87.2,5.1,87.2,5.1 M105.2,7.2l-3.2,4.2
		c-0.5,0.6-1.4,0.9-2.2,0.6l-5.7-2.2c-0.6-0.2-0.5-0.8,0.1-1.3l4.3-3.3c0.4-0.3,1.1-0.4,1.6-0.3l4.6,1.3
		C105.2,6.4,105.5,6.9,105.2,7.2z"/>
</g>
</svg>
